STARTFONT 2.1
FONT -FontForge-Futura Md BT-Book-R-Normal--36-720-36-36-P-201-ISO10646-1
SIZE 72 36 36
FONTBOUNDINGBOX 36 37 -1 -9
COMMENT "Generated by fontforge, http://fontforge.sourceforge.net"
COMMENT "Copyright 1990-1993 Bitstream Inc.  All rights reserved."
STARTPROPERTIES 39
FOUNDRY "FontForge"
FAMILY_NAME "Futura Md BT"
WEIGHT_NAME "Book"
SLANT "R"
SETWIDTH_NAME "Normal"
ADD_STYLE_NAME ""
PIXEL_SIZE 36
POINT_SIZE 720
RESOLUTION_X 36
RESOLUTION_Y 36
SPACING "P"
AVERAGE_WIDTH 201
CHARSET_REGISTRY "ISO10646"
CHARSET_ENCODING "1"
FONTNAME_REGISTRY ""
CHARSET_COLLECTIONS "ISO10646-1"
FONT_NAME "FuturaBT-Medium"
FACE_NAME "Futura Medium BT"
COPYRIGHT "Copyright 1990-1993 Bitstream Inc.  All rights reserved."
FONT_VERSION "mfgpctt-v1.52 Tuesday, January 12, 1993 3:32:04 pm (EST)"
FONT_ASCENT 29
FONT_DESCENT 7
UNDERLINE_POSITION -5
UNDERLINE_THICKNESS 3
X_HEIGHT 16
CAP_HEIGHT 25
RAW_ASCENT 799
RAW_DESCENT 200
RELATIVE_WEIGHT 40
RELATIVE_SETWIDTH 50
SUPERSCRIPT_X 0
SUPERSCRIPT_Y 10
SUPERSCRIPT_SIZE 21
SUBSCRIPT_X 0
SUBSCRIPT_Y -7
SUBSCRIPT_SIZE 21
FIGURE_WIDTH 22
AVG_LOWERCASE_WIDTH 179
AVG_UPPERCASE_WIDTH 230
ENDPROPERTIES
CHARS 96
STARTCHAR exclam
ENCODING 33
SWIDTH 329 0
DWIDTH 12 0
BBX 4 26 4 0
BITMAP
F0
F0
F0
F0
F0
F0
F0
F0
F0
F0
F0
F0
F0
F0
F0
F0
F0
F0
F0
F0
00
00
60
F0
F0
60
ENDCHAR
STARTCHAR quotedbl
ENCODING 34
SWIDTH 313 0
DWIDTH 11 0
BBX 9 10 1 15
BITMAP
E380
E380
E380
E380
E380
E380
E380
E380
E380
E380
ENDCHAR
STARTCHAR numbersign
ENCODING 35
SWIDTH 769 0
DWIDTH 28 0
BBX 25 26 1 0
BITMAP
001E1E00
001C1C00
001C3C00
003C3800
00383800
00387800
00787000
00707000
1FFFFF80
1FFFFF00
3FFFFF00
00E1E000
01E1C000
01C1C000
03C3C000
7FFFFE00
7FFFFC00
FFFFFC00
07070000
070F0000
0F0E0000
0E0E0000
0E1E0000
1E1C0000
1C1C0000
3C3C0000
ENDCHAR
STARTCHAR dollar
ENCODING 36
SWIDTH 604 0
DWIDTH 22 0
BBX 17 31 2 -3
BITMAP
00C000
00C000
03F800
0FFE00
1FFF00
3EDF00
7CC600
78C000
78C000
78C000
7CC000
3EC000
3FC000
1FF000
0FF800
03FE00
00FF00
00FF00
00CF80
00C780
00C780
20C780
70C780
F8CF00
7CDF00
7FFE00
1FFC00
07F000
00C000
00C000
00C000
ENDCHAR
STARTCHAR percent
ENCODING 37
SWIDTH 791 0
DWIDTH 29 0
BBX 27 26 1 0
BITMAP
1F000E00
3F801C00
71C01800
71C03800
E0E03000
E0E06000
E0E0E000
E0E0C000
E0E18000
E0E38000
71C30000
71C70000
3F861F00
1F0C3F80
001C71C0
001871C0
0038E0E0
0030E0E0
0060E0E0
00E0E0E0
00C0E0E0
0180E0E0
018071C0
030071C0
07003F80
0E001F00
ENDCHAR
STARTCHAR ampersand
ENCODING 38
SWIDTH 670 0
DWIDTH 24 0
BBX 23 26 1 0
BITMAP
01F800
07FC00
0FFE00
0F1F00
1E0F00
1E0F00
1E0F00
1E0F00
1F1E00
0FBC00
07F800
03F000
0FE000
1FF000
3E7810
7C3C38
783E3C
F01F78
F00FF0
F007E0
F807E0
FC1FF0
7FFFF0
3FFFF8
1FFE7C
07F03E
ENDCHAR
STARTCHAR quotesingle
ENCODING 39
SWIDTH 163 0
DWIDTH 6 0
BBX 3 10 2 15
BITMAP
E0
E0
E0
E0
E0
E0
E0
E0
E0
E0
ENDCHAR
STARTCHAR parenleft
ENCODING 40
SWIDTH 303 0
DWIDTH 11 0
BBX 7 35 3 -9
BITMAP
0C
1E
1C
3C
38
38
78
70
70
70
F0
E0
E0
E0
E0
E0
E0
E0
E0
E0
E0
E0
E0
E0
70
70
70
70
78
38
38
3C
1C
1E
0C
ENDCHAR
STARTCHAR parenright
ENCODING 41
SWIDTH 303 0
DWIDTH 11 0
BBX 7 35 1 -9
BITMAP
60
F0
70
78
38
38
3C
1C
1C
1C
1C
0E
0E
0E
0E
0E
0E
0E
0E
0E
0E
0E
0E
0E
1C
1C
1C
1C
3C
38
38
78
70
F0
60
ENDCHAR
STARTCHAR asterisk
ENCODING 42
SWIDTH 439 0
DWIDTH 16 0
BBX 13 12 2 14
BITMAP
0700
0700
6730
F778
7FF0
1FC0
1FC0
7FF0
F778
4730
0700
0700
ENDCHAR
STARTCHAR plus
ENCODING 43
SWIDTH 833 0
DWIDTH 30 0
BBX 21 21 5 0
BITMAP
007000
007000
007000
007000
007000
007000
007000
007000
007000
FFFFF8
FFFFF8
FFFFF8
007000
007000
007000
007000
007000
007000
007000
007000
007000
ENDCHAR
STARTCHAR comma
ENCODING 44
SWIDTH 301 0
DWIDTH 11 0
BBX 7 10 2 -5
BITMAP
18
1E
1C
3C
38
78
70
70
E0
60
ENDCHAR
STARTCHAR hyphen
ENCODING 45
SWIDTH 404 0
DWIDTH 15 0
BBX 9 4 3 7
BITMAP
FF80
FF80
FF80
FF80
ENDCHAR
STARTCHAR period
ENCODING 46
SWIDTH 301 0
DWIDTH 11 0
BBX 4 4 3 0
BITMAP
60
F0
F0
60
ENDCHAR
STARTCHAR slash
ENCODING 47
SWIDTH 433 0
DWIDTH 16 0
BBX 16 30 0 -4
BITMAP
0007
000E
000E
001E
001C
001C
0038
0038
0070
0070
00E0
00E0
00E0
01C0
01C0
0380
0380
0700
0700
0700
0E00
0E00
1C00
1C00
3800
3800
7800
7000
7000
E000
ENDCHAR
STARTCHAR zero
ENCODING 48
SWIDTH 604 0
DWIDTH 22 0
BBX 19 26 1 0
BITMAP
03F800
0FFE00
1FFF00
3E0F80
3C0780
7803C0
7803C0
7803C0
F001E0
F001E0
F001E0
F001E0
F001E0
F001E0
F001E0
F001E0
F001E0
F001E0
7803C0
7803C0
7803C0
3C0780
3E0F80
1FFF00
0FFE00
03F800
ENDCHAR
STARTCHAR one
ENCODING 49
SWIDTH 604 0
DWIDTH 22 0
BBX 9 26 5 0
BITMAP
7F80
7F80
FF80
0780
0780
0780
0780
0780
0780
0780
0780
0780
0780
0780
0780
0780
0780
0780
0780
0780
0780
0780
0780
0780
0780
0780
ENDCHAR
STARTCHAR two
ENCODING 50
SWIDTH 604 0
DWIDTH 22 0
BBX 17 26 1 0
BITMAP
07F000
1FFC00
3FFE00
7C1F00
780F80
F80780
F00780
F00780
000780
000780
000F00
000F00
001F00
003E00
003C00
007C00
00F800
01F000
03E000
07C000
0F8000
1F0000
1E0000
3FFF80
7FFF80
FFFF80
ENDCHAR
STARTCHAR three
ENCODING 51
SWIDTH 604 0
DWIDTH 22 0
BBX 17 26 1 0
BITMAP
07F000
0FFC00
1FFE00
3C3E00
781F00
780F00
780F00
000F00
000F00
001F00
003E00
01FC00
01F000
01FC00
001E00
000F00
000780
000780
F00780
F00780
F00780
780F80
7C1F00
3FFE00
1FFC00
07F000
ENDCHAR
STARTCHAR four
ENCODING 52
SWIDTH 604 0
DWIDTH 22 0
BBX 19 26 0 0
BITMAP
000300
000300
000700
000F00
000F00
001F00
003F00
003F00
007F00
00FF00
01EF00
01CF00
03CF00
078F00
070F00
0E0F00
1E0F00
3C0F00
3FFFE0
7FFFE0
FFFFE0
000F00
000F00
000F00
000F00
000F00
ENDCHAR
STARTCHAR five
ENCODING 53
SWIDTH 604 0
DWIDTH 22 0
BBX 18 26 1 0
BITMAP
07FF80
0FFF80
0FFF80
0E0000
0E0000
1E0000
1C0000
1C0000
1DF800
3FFE00
3FFF00
381F80
200F80
4007C0
0003C0
0003C0
0003C0
0003C0
0003C0
2003C0
200780
700F80
FC1F00
7FFE00
3FFC00
0FF000
ENDCHAR
STARTCHAR six
ENCODING 54
SWIDTH 604 0
DWIDTH 22 0
BBX 18 27 2 0
BITMAP
001000
003C00
007800
00F800
01F000
01E000
03C000
078000
0F0000
0E0000
1FF800
3FFE00
3FFF00
7E1F80
780780
7807C0
F003C0
F003C0
F003C0
F003C0
F003C0
F80780
780780
7E1F00
3FFF00
1FFC00
07F000
ENDCHAR
STARTCHAR seven
ENCODING 55
SWIDTH 604 0
DWIDTH 22 0
BBX 18 26 3 0
BITMAP
FFFFC0
FFFF80
FFFF80
000F00
001F00
001E00
003E00
003C00
007C00
007800
007800
00F000
00F000
01E000
01E000
03C000
03C000
078000
078000
0F0000
0F0000
1E0000
1E0000
3C0000
3C0000
780000
ENDCHAR
STARTCHAR eight
ENCODING 56
SWIDTH 604 0
DWIDTH 22 0
BBX 18 26 1 0
BITMAP
03F000
0FFC00
1FFE00
3E1F00
7C0F80
780780
780780
780780
780780
7C0F80
3E1F00
1FFE00
0FFC00
1FFE00
7C1F00
780780
F003C0
F003C0
F003C0
F003C0
F003C0
F807C0
7C0F80
3FFF00
1FFE00
07F800
ENDCHAR
STARTCHAR nine
ENCODING 57
SWIDTH 604 0
DWIDTH 22 0
BBX 18 26 1 0
BITMAP
03F800
0FFE00
3FFF00
3E1F80
780780
7807C0
F003C0
F003C0
F003C0
F003C0
F003C0
F80780
780780
7E1F80
3FFF00
1FFF00
07FE00
001C00
003C00
007800
00F000
01F000
01E000
03C000
078000
0F0000
ENDCHAR
STARTCHAR colon
ENCODING 58
SWIDTH 329 0
DWIDTH 12 0
BBX 4 16 4 0
BITMAP
60
F0
F0
60
00
00
00
00
00
00
00
00
60
F0
F0
60
ENDCHAR
STARTCHAR semicolon
ENCODING 59
SWIDTH 329 0
DWIDTH 12 0
BBX 8 21 2 -5
BITMAP
06
0F
0F
06
00
00
00
00
00
00
00
08
0E
1E
1C
3C
38
78
70
F0
60
ENDCHAR
STARTCHAR less
ENCODING 60
SWIDTH 833 0
DWIDTH 30 0
BBX 21 20 5 1
BITMAP
000008
000078
0001F8
000FF0
003FC0
00FF00
07F800
1FE000
FF0000
FC0000
FC0000
FF0000
1FC000
07F800
01FE00
003FC0
000FF0
0001F8
000078
000008
ENDCHAR
STARTCHAR equal
ENCODING 61
SWIDTH 833 0
DWIDTH 30 0
BBX 21 10 4 6
BITMAP
FFFFF8
FFFFF8
FFFFF8
000000
000000
000000
000000
FFFFF8
FFFFF8
FFFFF8
ENDCHAR
STARTCHAR greater
ENCODING 62
SWIDTH 833 0
DWIDTH 30 0
BBX 21 20 5 1
BITMAP
800000
F00000
FC0000
FF8000
1FE000
07F800
00FF00
003FC0
0007F8
0001F8
0001F8
0007F8
001FC0
00FF00
03FC00
1FE000
7F8000
FC0000
F00000
800000
ENDCHAR
STARTCHAR question
ENCODING 63
SWIDTH 543 0
DWIDTH 20 0
BBX 12 26 4 0
BITMAP
1F80
3FC0
7FE0
F0F0
E070
E070
0070
00F0
03E0
0FC0
3F80
7E00
F800
F000
E0E0
E0E0
F1E0
7FC0
7FC0
1F00
0000
0000
0C00
1E00
1E00
0C00
ENDCHAR
STARTCHAR at
ENCODING 64
SWIDTH 1000 0
DWIDTH 36 0
BBX 33 31 2 -5
BITMAP
0007FE0000
003FFFC000
00FC03F000
01E0007800
0780001C00
0E00000E00
0C00000600
1800000300
3803E00300
300FFB8180
601E1F8180
603C0F0180
E0780F0180
C0700F0180
C0F00F0180
C0E00E0180
C0E00E0300
C0E01E0300
C0E01E0700
C0E01C0E00
E0F03C1C00
6070FE7800
603FDFF000
301F8FC000
3800000000
1C00000000
0E00001800
0780007C00
01F007F000
007FFFC000
000FFC0000
ENDCHAR
STARTCHAR A
ENCODING 65
SWIDTH 662 0
DWIDTH 24 0
BBX 25 26 -1 0
BITMAP
00080000
00080000
001C0000
001C0000
001E0000
003E0000
003F0000
007F0000
007F8000
00F78000
00F3C000
01E3C000
01E1E000
03C1E000
03C0F000
07C0F000
07FFF800
0FFFF800
0FFFF800
1FFFFC00
1E003C00
3E003E00
3E001E00
7C001F00
7C000F00
F8000F80
ENDCHAR
STARTCHAR B
ENCODING 66
SWIDTH 576 0
DWIDTH 21 0
BBX 16 26 3 0
BITMAP
FFE0
FFF8
FFFC
FFFC
F07E
F01E
F01E
F01E
F01E
F07C
FFFC
FFF0
FFFC
FFFE
F03E
F01F
F00F
F00F
F00F
F00F
F01F
F03E
FFFE
FFFC
FFF8
FFF0
ENDCHAR
STARTCHAR C
ENCODING 67
SWIDTH 717 0
DWIDTH 26 0
BBX 22 26 2 0
BITMAP
003F80
01FFF0
07FFF8
0FFFFC
1FC07C
3F000C
3E0004
7C0000
780000
F80000
F00000
F00000
F00000
F00000
F00000
F00000
F80000
780000
7C0000
3E0004
3F001C
1FC07C
0FFFFC
07FFFC
01FFF8
003FC0
ENDCHAR
STARTCHAR D
ENCODING 68
SWIDTH 740 0
DWIDTH 27 0
BBX 22 26 3 0
BITMAP
FFF800
FFFF00
FFFF80
FFFFE0
F007E0
F001F0
F000F8
F00078
F00078
F0007C
F0003C
F0003C
F0003C
F0003C
F0003C
F0003C
F0007C
F00078
F00078
F000F8
F001F0
F007E0
FFFFE0
FFFF80
FFFF00
FFF800
ENDCHAR
STARTCHAR E
ENCODING 69
SWIDTH 532 0
DWIDTH 19 0
BBX 14 26 3 0
BITMAP
FFFC
FFFC
FFFC
FFFC
F000
F000
F000
F000
F000
F000
FFFC
FFFC
FFFC
FFFC
F000
F000
F000
F000
F000
F000
F000
F000
FFFC
FFFC
FFFC
FFFC
ENDCHAR
STARTCHAR F
ENCODING 70
SWIDTH 524 0
DWIDTH 19 0
BBX 14 26 3 0
BITMAP
FFFC
FFFC
FFFC
FFFC
F000
F000
F000
F000
F000
F000
FFFC
FFFC
FFFC
FFFC
F000
F000
F000
F000
F000
F000
F000
F000
F000
F000
F000
F000
ENDCHAR
STARTCHAR G
ENCODING 71
SWIDTH 803 0
DWIDTH 29 0
BBX 26 26 2 0
BITMAP
003FC000
01FFF000
07FFFC00
0FFFFE00
1FC07F00
3F001E00
3E000C00
7C000000
78000000
F8000000
F0000000
F0000000
F0000000
F000FFC0
F000FFC0
F000FFC0
F800FFC0
780003C0
7C0003C0
3E000780
3F000F80
1FE03F00
0FFFFF00
07FFFE00
01FFF800
007FC000
ENDCHAR
STARTCHAR H
ENCODING 72
SWIDTH 748 0
DWIDTH 27 0
BBX 21 26 3 0
BITMAP
F00078
F00078
F00078
F00078
F00078
F00078
F00078
F00078
F00078
FFFFF8
FFFFF8
FFFFF8
FFFFF8
F00078
F00078
F00078
F00078
F00078
F00078
F00078
F00078
F00078
F00078
F00078
F00078
F00078
ENDCHAR
STARTCHAR I
ENCODING 73
SWIDTH 285 0
DWIDTH 10 0
BBX 4 26 3 0
BITMAP
F0
F0
F0
F0
F0
F0
F0
F0
F0
F0
F0
F0
F0
F0
F0
F0
F0
F0
F0
F0
F0
F0
F0
F0
F0
F0
ENDCHAR
STARTCHAR J
ENCODING 74
SWIDTH 394 0
DWIDTH 14 0
BBX 12 26 0 0
BITMAP
00F0
00F0
00F0
00F0
00F0
00F0
00F0
00F0
00F0
00F0
00F0
00F0
00F0
00F0
00F0
00F0
00F0
00F0
00F0
00F0
00F0
31F0
7FF0
FFE0
7FC0
1F80
ENDCHAR
STARTCHAR K
ENCODING 75
SWIDTH 620 0
DWIDTH 22 0
BBX 20 26 3 0
BITMAP
F007E0
F00F80
F01F80
F03F00
F03E00
F07C00
F0F800
F1F000
F3E000
F7C000
FF8000
FF0000
FF8000
F7C000
F7E000
F3E000
F1F000
F0F800
F07C00
F07E00
F03F00
F01F00
F00F80
F00FC0
F007E0
F003F0
ENDCHAR
STARTCHAR L
ENCODING 76
SWIDTH 470 0
DWIDTH 17 0
BBX 14 26 3 0
BITMAP
F000
F000
F000
F000
F000
F000
F000
F000
F000
F000
F000
F000
F000
F000
F000
F000
F000
F000
F000
F000
F000
F000
FFFC
FFFC
FFFC
FFFC
ENDCHAR
STARTCHAR M
ENCODING 77
SWIDTH 862 0
DWIDTH 31 0
BBX 30 26 0 0
BITMAP
04000100
02000100
06000100
07000380
07000380
07800780
07800780
0FC00FC0
0FC00FC0
0FE01FC0
0FE01FC0
1FF03FE0
1EF03DE0
1EF87DE0
1C7878E0
3C7878F0
3C3CF0F0
3C3CF0F0
3C1FE0F0
780FE070
780FC078
78078078
78078078
70030038
F003003C
F002003C
ENDCHAR
STARTCHAR N
ENCODING 78
SWIDTH 803 0
DWIDTH 29 0
BBX 23 26 3 0
BITMAP
80001E
C0001E
E0001E
F0001E
F8001E
FC001E
FE001E
FF001E
FF801E
F7C01E
F3F01E
F1F81E
F0FC1E
F07E1E
F03F1E
F00F9E
F007DE
F003FE
F001FE
F000FE
F0007E
F0003E
F0001E
F0000E
F00006
F00002
ENDCHAR
STARTCHAR O
ENCODING 79
SWIDTH 866 0
DWIDTH 31 0
BBX 28 26 2 0
BITMAP
003FC000
01FFF800
03FFFC00
0FFFFF00
1FE07F80
3F000F80
3E0007C0
7C0003E0
780001E0
F80001E0
F00000F0
F00000F0
F00000F0
F00000F0
F00000F0
F00000F0
F80001E0
780001E0
7C0003E0
3E0007C0
3F000F80
1FE07F80
0FFFFF00
03FFFC00
01FFF000
003FC000
ENDCHAR
STARTCHAR P
ENCODING 80
SWIDTH 532 0
DWIDTH 19 0
BBX 15 26 3 0
BITMAP
FFE0
FFF8
FFFC
FFFC
F07E
F01E
F01E
F01E
F01E
F07E
FFFC
FFFC
FFF8
FFE0
F000
F000
F000
F000
F000
F000
F000
F000
F000
F000
F000
F000
ENDCHAR
STARTCHAR Q
ENCODING 81
SWIDTH 866 0
DWIDTH 31 0
BBX 30 28 2 -2
BITMAP
003FC000
01FFF800
03FFFC00
0FFFFF00
1FE07F80
1F801FC0
3E0007C0
7C0003E0
780001E0
F80001F0
F00000F0
F00000F0
F00000F0
F00000F0
F00000F0
F00000F0
F803E1E0
7801F1E0
7C00FBE0
3E007FC0
1F003FC0
1FE07F80
0FFFFF80
03FFFFC0
00FFFBE0
003FC1F0
000000F0
000000FC
ENDCHAR
STARTCHAR R
ENCODING 82
SWIDTH 560 0
DWIDTH 20 0
BBX 18 26 3 0
BITMAP
FFE000
FFF800
FFFC00
FFFC00
F07E00
F01E00
F01E00
F01E00
F01E00
F07E00
FFFC00
FFFC00
FFF800
FFC000
F7C000
F3C000
F1E000
F1F000
F0F000
F07800
F07C00
F03E00
F01E00
F01F00
F00F80
F007C0
ENDCHAR
STARTCHAR S
ENCODING 83
SWIDTH 548 0
DWIDTH 20 0
BBX 17 26 1 0
BITMAP
03F000
0FFC00
1FFE00
3FFF00
7E1F00
780400
780000
780000
7C0000
3E0000
3F8000
1FE000
0FF800
03FE00
00FF00
003F00
000F80
000780
000780
300780
F00F80
FC1F00
7FFF00
3FFE00
1FFC00
07F000
ENDCHAR
STARTCHAR T
ENCODING 84
SWIDTH 508 0
DWIDTH 18 0
BBX 18 26 0 0
BITMAP
FFFFC0
FFFFC0
FFFFC0
FFFFC0
01E000
01E000
01E000
01E000
01E000
01E000
01E000
01E000
01E000
01E000
01E000
01E000
01E000
01E000
01E000
01E000
01E000
01E000
01E000
01E000
01E000
01E000
ENDCHAR
STARTCHAR U
ENCODING 85
SWIDTH 744 0
DWIDTH 27 0
BBX 21 26 3 0
BITMAP
F00078
F00078
F00078
F00078
F00078
F00078
F00078
F00078
F00078
F00078
F00078
F00078
F00078
F00078
F00078
F00078
F00078
F00078
F800F8
F800F8
7C01F0
7F03F0
3FFFE0
1FFFC0
0FFF80
03FC00
ENDCHAR
STARTCHAR V
ENCODING 86
SWIDTH 618 0
DWIDTH 22 0
BBX 23 26 0 0
BITMAP
F0003E
78003C
78003C
3C0078
3C0078
3C00F8
1E00F0
1E01F0
0F01E0
0F01E0
0783C0
0783C0
078780
03C780
03CF80
01EF00
01EF00
00FE00
00FE00
00FC00
007C00
007800
003800
003000
001000
001000
ENDCHAR
STARTCHAR W
ENCODING 87
SWIDTH 938 0
DWIDTH 34 0
BBX 34 26 0 0
BITMAP
F0008003C0
7800C00780
7800C00780
7801C00780
3C01E00F00
3C01E00F00
3C03F01F00
1E03F01E00
1E07F01E00
0F07F83C00
0F07783C00
0F0F3C3C00
078F3C7800
079E1C7800
079E1E7000
03DC0EF000
03FC0EF000
01F80FE000
01F807E000
01F807E000
00F003C000
00F003C000
0060018000
0060018000
0060018000
0040010000
ENDCHAR
STARTCHAR X
ENCODING 88
SWIDTH 571 0
DWIDTH 21 0
BBX 21 26 0 0
BITMAP
7C01F0
3C01E0
3E03E0
1E03C0
0F0780
0F8F80
078F00
07DE00
03DE00
01FC00
01FC00
00F800
00F800
00F800
01FC00
03FC00
03DE00
07DF00
078F00
0F0F80
1F07C0
1E07C0
3E03E0
3C01E0
7801F0
F800F8
ENDCHAR
STARTCHAR Y
ENCODING 89
SWIDTH 592 0
DWIDTH 21 0
BBX 22 26 0 0
BITMAP
F8007C
780078
3C00F0
3E00F0
1E01E0
0F03E0
0F83C0
078780
07CF80
03CF00
01FE00
01FE00
00FC00
007800
007800
007800
007800
007800
007800
007800
007800
007800
007800
007800
007800
007800
ENDCHAR
STARTCHAR Z
ENCODING 90
SWIDTH 576 0
DWIDTH 21 0
BBX 20 26 1 0
BITMAP
3FFFF0
3FFFE0
3FFFC0
3FFFC0
000780
000F80
000F00
001E00
001E00
003C00
007C00
007800
00F000
00F000
01E000
03E000
03C000
078000
078000
0F0000
1F0000
1E0000
3FFFF0
7FFFF0
7FFFF0
FFFFF0
ENDCHAR
STARTCHAR bracketleft
ENCODING 91
SWIDTH 303 0
DWIDTH 11 0
BBX 7 34 4 -8
BITMAP
FE
FE
FE
E0
E0
E0
E0
E0
E0
E0
E0
E0
E0
E0
E0
E0
E0
E0
E0
E0
E0
E0
E0
E0
E0
E0
E0
E0
E0
E0
E0
FE
FE
FE
ENDCHAR
STARTCHAR backslash
ENCODING 92
SWIDTH 433 0
DWIDTH 16 0
BBX 16 30 0 -4
BITMAP
E000
7000
7000
3800
3800
3800
1C00
1C00
0E00
0E00
0700
0700
0700
0380
0380
01C0
01C0
00E0
00E0
00E0
0070
0070
0038
0038
001C
001C
001C
000E
000E
0007
ENDCHAR
STARTCHAR bracketright
ENCODING 93
SWIDTH 303 0
DWIDTH 11 0
BBX 7 34 1 -8
BITMAP
FE
FE
FE
0E
0E
0E
0E
0E
0E
0E
0E
0E
0E
0E
0E
0E
0E
0E
0E
0E
0E
0E
0E
0E
0E
0E
0E
0E
0E
0E
0E
FE
FE
FE
ENDCHAR
STARTCHAR asciicircum
ENCODING 94
SWIDTH 1000 0
DWIDTH 36 0
BBX 21 10 7 16
BITMAP
00F800
01FC00
03FE00
03DE00
078F00
0F0780
1E03C0
3C01E0
7800F0
F00078
ENDCHAR
STARTCHAR underscore
ENCODING 95
SWIDTH 500 0
DWIDTH 18 0
BBX 18 3 0 -8
BITMAP
FFFFC0
FFFFC0
FFFFC0
ENDCHAR
STARTCHAR grave
ENCODING 96
SWIDTH 500 0
DWIDTH 18 0
BBX 7 5 4 19
BITMAP
F0
78
38
1C
0E
ENDCHAR
STARTCHAR a
ENCODING 97
SWIDTH 582 0
DWIDTH 21 0
BBX 17 17 1 0
BITMAP
07C780
1FF780
3FFF80
7C1F80
780F80
F80780
F00780
F00780
F00780
F00780
F00780
F80F80
780F80
7C1F80
3FFF80
1FF780
07C780
ENDCHAR
STARTCHAR b
ENCODING 98
SWIDTH 582 0
DWIDTH 21 0
BBX 17 27 3 0
BITMAP
F00000
F00000
F00000
F00000
F00000
F00000
F00000
F00000
F00000
F00000
F1F000
F7FC00
FFFE00
FC1F00
F80F00
F00F80
F00780
F00780
F00780
F00780
F00780
F80F80
F80F00
FC1F00
FFFE00
F7FC00
F1F000
ENDCHAR
STARTCHAR c
ENCODING 99
SWIDTH 454 0
DWIDTH 16 0
BBX 14 17 1 0
BITMAP
03F8
0FFC
3FFC
3E0C
7804
F800
F000
F000
F000
F000
F000
F800
7804
3E0C
3FFC
0FFC
03F8
ENDCHAR
STARTCHAR d
ENCODING 100
SWIDTH 582 0
DWIDTH 21 0
BBX 17 27 1 0
BITMAP
000780
000780
000780
000780
000780
000780
000780
000780
000780
000780
07C780
1FF780
3FFF80
7C1F80
780F80
F80780
F00780
F00780
F00780
F00780
F00780
F80F80
780F80
7C1F80
3FFF80
1FF780
07C780
ENDCHAR
STARTCHAR e
ENCODING 101
SWIDTH 556 0
DWIDTH 20 0
BBX 18 17 1 0
BITMAP
07F000
1FFC00
3FFE00
7C1F00
780F00
F00780
FFFF80
FFFF80
FFFF80
F00000
F00000
F80200
7807C0
7E1F80
3FFF00
0FFE00
03F800
ENDCHAR
STARTCHAR f
ENCODING 102
SWIDTH 306 0
DWIDTH 11 0
BBX 11 27 0 0
BITMAP
03E0
0FE0
0FE0
1F00
1E00
1E00
1E00
1E00
1E00
1E00
FFE0
FFE0
FFE0
1E00
1E00
1E00
1E00
1E00
1E00
1E00
1E00
1E00
1E00
1E00
1E00
1E00
1E00
ENDCHAR
STARTCHAR g
ENCODING 103
SWIDTH 582 0
DWIDTH 21 0
BBX 17 25 1 -8
BITMAP
07C780
1FF780
3FFF80
7C1F80
780F80
F80780
F00780
F00780
F00780
F00780
F00780
F80F80
780F80
7C1F80
3FFF80
1FF780
07C780
000780
000780
780780
780F00
7C1F00
3FFE00
1FFC00
07F000
ENDCHAR
STARTCHAR h
ENCODING 104
SWIDTH 587 0
DWIDTH 21 0
BBX 16 27 3 0
BITMAP
F000
F000
F000
F000
F000
F000
F000
F000
F000
F000
F1F8
F7FE
FFFE
FC1F
F81F
F00F
F00F
F00F
F00F
F00F
F00F
F00F
F00F
F00F
F00F
F00F
F00F
ENDCHAR
STARTCHAR i
ENCODING 105
SWIDTH 262 0
DWIDTH 9 0
BBX 5 27 2 0
BITMAP
70
F8
F8
F8
70
00
00
00
00
00
78
78
78
78
78
78
78
78
78
78
78
78
78
78
78
78
78
ENDCHAR
STARTCHAR j
ENCODING 106
SWIDTH 262 0
DWIDTH 9 0
BBX 5 35 2 -8
BITMAP
70
F8
F8
F8
70
00
00
00
00
00
78
78
78
78
78
78
78
78
78
78
78
78
78
78
78
78
78
78
78
78
78
78
78
78
78
ENDCHAR
STARTCHAR k
ENCODING 107
SWIDTH 516 0
DWIDTH 19 0
BBX 16 27 3 0
BITMAP
F000
F000
F000
F000
F000
F000
F000
F000
F000
F000
F03E
F07C
F0F8
F1F0
F3E0
F7C0
F780
FF00
FF80
F7C0
F3E0
F1E0
F0F0
F0F8
F07C
F03E
F01F
ENDCHAR
STARTCHAR l
ENCODING 108
SWIDTH 262 0
DWIDTH 9 0
BBX 4 27 3 0
BITMAP
F0
F0
F0
F0
F0
F0
F0
F0
F0
F0
F0
F0
F0
F0
F0
F0
F0
F0
F0
F0
F0
F0
F0
F0
F0
F0
F0
ENDCHAR
STARTCHAR m
ENCODING 109
SWIDTH 875 0
DWIDTH 32 0
BBX 26 17 3 0
BITMAP
F1F03E00
F7FCFF80
FFFDFFC0
FC3F87C0
F83F03C0
F01E03C0
F01E03C0
F01E03C0
F01E03C0
F01E03C0
F01E03C0
F01E03C0
F01E03C0
F01E03C0
F01E03C0
F01E03C0
F01E03C0
ENDCHAR
STARTCHAR n
ENCODING 110
SWIDTH 587 0
DWIDTH 21 0
BBX 16 17 3 0
BITMAP
F1F8
F7FE
FFFE
FC1F
F81F
F00F
F00F
F00F
F00F
F00F
F00F
F00F
F00F
F00F
F00F
F00F
F00F
ENDCHAR
STARTCHAR o
ENCODING 111
SWIDTH 587 0
DWIDTH 21 0
BBX 18 17 1 0
BITMAP
03F000
0FFC00
1FFE00
3E1F00
7C0F80
780780
F003C0
F003C0
F003C0
F003C0
F003C0
780780
7C0F80
3E1F00
1FFE00
0FFC00
03F000
ENDCHAR
STARTCHAR p
ENCODING 112
SWIDTH 582 0
DWIDTH 21 0
BBX 17 25 3 -8
BITMAP
F1F000
F7FC00
FFFE00
FC1F00
F80F00
F00F80
F00780
F00780
F00780
F00780
F00780
F80F80
F80F00
FC1F00
FFFE00
F7FC00
F1F000
F00000
F00000
F00000
F00000
F00000
F00000
F00000
F00000
ENDCHAR
STARTCHAR q
ENCODING 113
SWIDTH 582 0
DWIDTH 21 0
BBX 17 25 1 -8
BITMAP
07C780
1FF780
3FFF80
7C1F80
780F80
F80780
F00780
F00780
F00780
F00780
F00780
F80F80
780F80
7C1F80
3FFF80
1FF780
07C780
000780
000780
000780
000780
000780
000780
000780
000780
ENDCHAR
STARTCHAR r
ENCODING 114
SWIDTH 368 0
DWIDTH 13 0
BBX 11 17 3 0
BITMAP
F3E0
F7E0
FFC0
FC40
F800
F000
F000
F000
F000
F000
F000
F000
F000
F000
F000
F000
F000
ENDCHAR
STARTCHAR s
ENCODING 115
SWIDTH 425 0
DWIDTH 15 0
BBX 13 17 1 0
BITMAP
1FC0
3FE0
7FF0
F8E0
F040
F000
F800
7F00
3FC0
0FF0
01F8
0078
2078
F0F8
7FF0
3FF0
1FC0
ENDCHAR
STARTCHAR t
ENCODING 116
SWIDTH 303 0
DWIDTH 11 0
BBX 10 23 0 0
BITMAP
1E00
1E00
1E00
1E00
1E00
1E00
FFC0
FFC0
FFC0
1E00
1E00
1E00
1E00
1E00
1E00
1E00
1E00
1E00
1E00
1E00
1E00
1E00
1E00
ENDCHAR
STARTCHAR u
ENCODING 117
SWIDTH 587 0
DWIDTH 21 0
BBX 16 17 3 0
BITMAP
F00F
F00F
F00F
F00F
F00F
F00F
F00F
F00F
F00F
F00F
F00F
F00F
781E
7C3E
7FFC
3FFC
0FF0
ENDCHAR
STARTCHAR v
ENCODING 118
SWIDTH 472 0
DWIDTH 17 0
BBX 17 17 0 0
BITMAP
F00780
700F00
780F00
381E00
3C1E00
1C1C00
1E3C00
0E3800
0E7800
077000
077000
03E000
03E000
01C000
01C000
008000
008000
ENDCHAR
STARTCHAR w
ENCODING 119
SWIDTH 750 0
DWIDTH 27 0
BBX 27 17 0 0
BITMAP
F00401E0
700C03C0
780E03C0
380E0780
3C1F0780
1C1F0700
1E3B8F00
0E3B8E00
0F73DE00
0771DC00
07F1DC00
03E0F800
03E0F800
01C07000
01C07000
00802000
00802000
ENDCHAR
STARTCHAR x
ENCODING 120
SWIDTH 453 0
DWIDTH 16 0
BBX 17 17 0 0
BITMAP
F81F00
781E00
3C3C00
3E7C00
1E7800
0FF000
07E000
07E000
07E000
07F000
0FF000
1E7800
1E7C00
3C3C00
381E00
780F00
F00F80
ENDCHAR
STARTCHAR y
ENCODING 121
SWIDTH 471 0
DWIDTH 17 0
BBX 17 25 0 -8
BITMAP
F00780
780F00
780F00
781E00
3C1E00
3C1C00
3C3C00
1E3C00
1E7800
0E7800
0FF000
0FF000
07E000
07E000
03C000
03C000
078000
078000
070000
0F0000
0E0000
1E0000
1C0000
3C0000
7C0000
ENDCHAR
STARTCHAR z
ENCODING 122
SWIDTH 449 0
DWIDTH 16 0
BBX 15 17 0 0
BITMAP
7FFE
7FFC
7FF8
0078
00F0
01F0
01E0
03C0
07C0
0780
0F00
0F00
1E00
3E00
3FFE
7FFE
FFFE
ENDCHAR
STARTCHAR braceleft
ENCODING 123
SWIDTH 500 0
DWIDTH 18 0
BBX 13 33 3 -7
BITMAP
00F8
03F8
07F8
07C0
0780
0780
0780
0780
0780
0780
0780
0780
0780
0F80
1F00
FF00
F800
FE00
1F00
0F80
0780
0780
0780
0780
0780
0780
0780
0780
0780
07C0
07F8
03F8
00F8
ENDCHAR
STARTCHAR bar
ENCODING 124
SWIDTH 500 0
DWIDTH 18 0
BBX 3 36 7 -8
BITMAP
E0
E0
E0
E0
E0
E0
E0
E0
E0
E0
E0
E0
E0
E0
E0
E0
E0
E0
E0
E0
E0
E0
E0
E0
E0
E0
E0
E0
E0
E0
E0
E0
E0
E0
E0
E0
ENDCHAR
STARTCHAR braceright
ENCODING 125
SWIDTH 500 0
DWIDTH 18 0
BBX 13 33 3 -7
BITMAP
F800
FE00
FF00
1F00
0F00
0F00
0F00
0F00
0F00
0F00
0F00
0F00
0F00
0F80
07C0
07F8
00F8
03F8
07C0
0F80
0F00
0F00
0F00
0F00
0F00
0F00
0F00
0F00
0F00
1F00
FF00
FE00
F800
ENDCHAR
STARTCHAR asciitilde
ENCODING 126
SWIDTH 833 0
DWIDTH 30 0
BBX 24 6 3 7
BITMAP
0FE003
7FFC0F
FFFFFF
F03FFE
C003F0
800000
ENDCHAR
STARTCHAR nonbreakingspace
ENCODING 160
SWIDTH 604 0
DWIDTH 22 0
BBX 1 1 0 0
BITMAP
00
ENDCHAR
STARTCHAR degree
ENCODING 176
SWIDTH 329 0
DWIDTH 12 0
BBX 10 10 1 16
BITMAP
1E00
7F80
6180
C0C0
C0C0
C0C0
C0C0
6180
7F80
1E00
ENDCHAR
ENDFONT
